<?xml version="1.0" encoding="UTF-8"?><!DOCTYPE svg PUBLIC "-//W3C//DTD SVG 1.0//EN" "http://www.w3.org/TR/2001/REC-SVG-20010904/DTD/svg10.dtd" []><svg xmlns="http://www.w3.org/2000/svg" xmlns:xlink="http://www.w3.org/1999/xlink" fill="none" height="172" style="fill: none;" viewBox="0 0 179 172" width="179"><path d="M155.48 28.3945L160.392 35.0771L155.48 44.9236L150.62 35.0771L155.48 28.3945Z" fill="#000"/><path d="M162.968 22.8938L170.927 20.5641L178.5 28.5471L167.585 29.7467L162.968 22.8938Z" fill="#000"/><path d="M148.532 22.8938L140.573 20.5641L133 28.5471L143.915 29.7467L148.532 22.8938Z" fill="#000"/><path d="M160.412 14.5398L160.222 6.24864L169.893 0.999969L168.226 11.8536L160.412 14.5398Z" fill="#000"/><path d="M151.088 14.5398L151.279 6.24864L141.608 0.999969L143.274 11.8536L151.088 14.5398Z" fill="#000"/><path d="M43.0903 67.5125C41.2301 67.5125 39.4838 67.1708 37.8514 66.4875C36.219 65.7852 34.7859 64.8266 33.5521 63.6118C32.3183 62.397 31.3502 60.9829 30.6479 59.3694C29.9646 57.756 29.6229 56.0287 29.6229 54.1875C29.6229 52.3463 29.9646 50.619 30.6479 49.0056C31.3502 47.3921 32.3183 45.978 33.5521 44.7632C34.7859 43.5484 36.219 42.5993 37.8514 41.916C39.4838 41.2137 41.2301 40.8625 43.0903 40.8625C44.8366 40.8625 46.4785 41.1662 48.016 41.7736C49.5725 42.381 50.9486 43.2352 52.1444 44.3361L50.9486 49.2903C50.1704 47.9995 49.0979 46.9461 47.7313 46.1299C46.3836 45.2947 44.865 44.8771 43.1757 44.8771C41.4674 44.8771 39.9204 45.2947 38.5347 46.1299C37.1681 46.965 36.0766 48.085 35.2604 49.4896C34.4632 50.8942 34.0646 52.4602 34.0646 54.1875C34.0646 55.8958 34.4632 57.4618 35.2604 58.8854C36.0766 60.29 37.1681 61.41 38.5347 62.2451C39.9204 63.0803 41.4674 63.4979 43.1757 63.4979C44.865 63.4979 46.3836 63.0803 47.7313 62.2451C49.0979 61.41 50.1704 60.3565 50.9486 59.0847L52.1444 64.0389C50.9486 65.1208 49.5725 65.975 48.016 66.6014C46.4785 67.2088 44.8366 67.5125 43.0903 67.5125ZM56.4304 67V41.375H63.5769C65.3042 41.375 66.7848 41.7262 68.0186 42.4285C69.2714 43.1118 70.2299 44.0229 70.8943 45.1618C71.5586 46.3007 71.8908 47.5535 71.8908 48.9201C71.8908 50.2868 71.5492 51.5206 70.8658 52.6215C70.1825 53.7225 69.2239 54.5766 67.9901 55.184L75.6776 67H70.9797L64.061 56.2375H60.5304V67H56.4304ZM60.5304 52.7354H63.52C64.526 52.7354 65.3422 52.5456 65.9686 52.166C66.614 51.7863 67.0885 51.3023 67.3922 50.7139C67.7149 50.1255 67.8762 49.5275 67.8762 48.9201C67.8762 47.8192 67.4776 46.9176 66.6804 46.2153C65.8832 45.494 64.8297 45.1333 63.52 45.1333H60.5304V52.7354ZM89.936 67.5125C88.0758 67.5125 86.3295 67.1708 84.6971 66.4875C83.0647 65.7852 81.6316 64.8266 80.3978 63.6118C79.183 62.397 78.2244 60.9829 77.5221 59.3694C76.8198 57.756 76.4686 56.0287 76.4686 54.1875C76.4686 52.3463 76.8198 50.619 77.5221 49.0056C78.2244 47.3921 79.183 45.978 80.3978 44.7632C81.6316 43.5484 83.0647 42.5993 84.6971 41.916C86.3295 41.2137 88.0758 40.8625 89.936 40.8625C91.8151 40.8625 93.5614 41.2137 95.1749 41.916C96.8073 42.5993 98.2404 43.5484 99.4742 44.7632C100.708 45.978 101.667 47.3921 102.35 49.0056C103.052 50.619 103.403 52.3463 103.403 54.1875C103.403 56.0287 103.052 57.756 102.35 59.3694C101.667 60.9829 100.708 62.397 99.4742 63.6118C98.2404 64.8266 96.8073 65.7852 95.1749 66.4875C93.5614 67.1708 91.8151 67.5125 89.936 67.5125ZM89.936 63.4979C91.6443 63.4979 93.1818 63.0803 94.5485 62.2451C95.9341 61.41 97.0256 60.29 97.8228 58.8854C98.639 57.4618 99.0471 55.8958 99.0471 54.1875C99.0471 52.4602 98.639 50.8942 97.8228 49.4896C97.0256 48.085 95.9341 46.965 94.5485 46.1299C93.1818 45.2947 91.6443 44.8771 89.936 44.8771C88.2276 44.8771 86.6807 45.2947 85.295 46.1299C83.9283 46.965 82.8369 48.085 82.0207 49.4896C81.2235 50.8942 80.8249 52.4602 80.8249 54.1875C80.8249 55.8958 81.2235 57.4618 82.0207 58.8854C82.8369 60.29 83.9283 61.41 85.295 62.2451C86.6807 63.0803 88.2276 63.4979 89.936 63.4979ZM113.7 67.4556C112.162 67.4556 110.729 67.1613 109.4 66.5729C108.091 65.9845 107.047 65.2632 106.268 64.409L107.436 59.5972C108.043 60.6981 108.916 61.6567 110.055 62.4729C111.194 63.2891 112.456 63.6972 113.842 63.6972C115.019 63.6972 115.977 63.3461 116.718 62.6437C117.458 61.9225 117.828 61.0493 117.828 60.0243C117.828 59.2271 117.638 58.5722 117.259 58.0597C116.898 57.5472 116.471 57.1391 115.977 56.8354C115.484 56.5127 115.076 56.2755 114.753 56.1236L111.678 54.5861C110.995 54.2255 110.273 53.7794 109.514 53.2479C108.755 52.7164 108.11 52.0236 107.578 51.1694C107.047 50.2963 106.781 49.1954 106.781 47.8667C106.781 46.5 107.094 45.2947 107.72 44.2507C108.347 43.2067 109.229 42.3905 110.368 41.8021C111.507 41.2137 112.826 40.9194 114.326 40.9194C115.769 40.9194 117.05 41.1662 118.17 41.6597C119.29 42.1343 120.182 42.6373 120.846 43.1687L119.707 47.9236C119.1 47.0315 118.293 46.2627 117.287 45.6174C116.3 44.953 115.247 44.6208 114.127 44.6208C113.102 44.6208 112.295 44.915 111.707 45.5035C111.118 46.0729 110.824 46.7752 110.824 47.6104C110.824 48.1988 110.957 48.7019 111.223 49.1194C111.507 49.537 111.849 49.8882 112.248 50.1729C112.665 50.4387 113.073 50.6759 113.472 50.8847L116.604 52.4507C117.04 52.6595 117.553 52.9537 118.141 53.3333C118.749 53.694 119.337 54.159 119.907 54.7285C120.476 55.2979 120.941 55.9907 121.302 56.8069C121.681 57.6231 121.871 58.6007 121.871 59.7396C121.871 61.2201 121.52 62.5488 120.818 63.7257C120.134 64.8836 119.185 65.7947 117.97 66.459C116.756 67.1234 115.332 67.4556 113.7 67.4556ZM132.478 67.4556C130.94 67.4556 129.507 67.1613 128.179 66.5729C126.869 65.9845 125.825 65.2632 125.047 64.409L126.214 59.5972C126.821 60.6981 127.695 61.6567 128.833 62.4729C129.972 63.2891 131.235 63.6972 132.62 63.6972C133.797 63.6972 134.756 63.3461 135.496 62.6437C136.236 61.9225 136.606 61.0493 136.606 60.0243C136.606 59.2271 136.417 58.5722 136.037 58.0597C135.676 57.5472 135.249 57.1391 134.756 56.8354C134.262 56.5127 133.854 56.2755 133.531 56.1236L130.456 54.5861C129.773 54.2255 129.052 53.7794 128.293 53.2479C127.533 52.7164 126.888 52.0236 126.356 51.1694C125.825 50.2963 125.559 49.1954 125.559 47.8667C125.559 46.5 125.872 45.2947 126.499 44.2507C127.125 43.2067 128.008 42.3905 129.147 41.8021C130.286 41.2137 131.605 40.9194 133.104 40.9194C134.547 40.9194 135.828 41.1662 136.948 41.6597C138.068 42.1343 138.96 42.6373 139.624 43.1687L138.486 47.9236C137.878 47.0315 137.071 46.2627 136.065 45.6174C135.078 44.953 134.025 44.6208 132.905 44.6208C131.88 44.6208 131.073 44.915 130.485 45.5035C129.896 46.0729 129.602 46.7752 129.602 47.6104C129.602 48.1988 129.735 48.7019 130.001 49.1194C130.286 49.537 130.627 49.8882 131.026 50.1729C131.443 50.4387 131.852 50.6759 132.25 50.8847L135.382 52.4507C135.819 52.6595 136.331 52.9537 136.92 53.3333C137.527 53.694 138.115 54.159 138.685 54.7285C139.254 55.2979 139.719 55.9907 140.08 56.8069C140.46 57.6231 140.649 58.6007 140.649 59.7396C140.649 61.2201 140.298 62.5488 139.596 63.7257C138.913 64.8836 137.964 65.7947 136.749 66.459C135.534 67.1234 134.11 67.4556 132.478 67.4556Z" fill="#000"/><path d="M13.248 152.08C12.96 151.525 12.56 151.109 12.048 150.832C11.536 150.544 10.944 150.4 10.272 150.4C9.536 150.4 8.88 150.565 8.304 150.896C7.728 151.227 7.27467 151.696 6.944 152.304C6.624 152.912 6.464 153.616 6.464 154.416C6.464 155.216 6.624 155.925 6.944 156.544C7.27467 157.152 7.728 157.621 8.304 157.952C8.88 158.283 9.536 158.448 10.272 158.448C11.264 158.448 12.0693 158.171 12.688 157.616C13.3067 157.061 13.6853 156.309 13.824 155.36H9.648V153.904H15.776V155.328C15.6587 156.192 15.3493 156.987 14.848 157.712C14.3573 158.437 13.712 159.019 12.912 159.456C12.1227 159.883 11.2427 160.096 10.272 160.096C9.22667 160.096 8.272 159.856 7.408 159.376C6.544 158.885 5.856 158.208 5.344 157.344C4.84267 156.48 4.592 155.504 4.592 154.416C4.592 153.328 4.84267 152.352 5.344 151.488C5.856 150.624 6.544 149.952 7.408 149.472C8.28267 148.981 9.23733 148.736 10.272 148.736C11.456 148.736 12.5067 149.029 13.424 149.616C14.352 150.192 15.024 151.013 15.44 152.08H13.248ZM19.399 158.528H23.159V160H17.575V148.88H19.399V158.528ZM29.7564 160.112C28.7217 160.112 27.767 159.872 26.8924 159.392C26.0284 158.901 25.3404 158.224 24.8284 157.36C24.327 156.485 24.0764 155.504 24.0764 154.416C24.0764 153.328 24.327 152.352 24.8284 151.488C25.3404 150.624 26.0284 149.952 26.8924 149.472C27.767 148.981 28.7217 148.736 29.7564 148.736C30.8017 148.736 31.7564 148.981 32.6204 149.472C33.495 149.952 34.183 150.624 34.6844 151.488C35.1857 152.352 35.4364 153.328 35.4364 154.416C35.4364 155.504 35.1857 156.485 34.6844 157.36C34.183 158.224 33.495 158.901 32.6204 159.392C31.7564 159.872 30.8017 160.112 29.7564 160.112ZM29.7564 158.528C30.4924 158.528 31.1484 158.363 31.7244 158.032C32.3004 157.691 32.7484 157.211 33.0684 156.592C33.399 155.963 33.5644 155.237 33.5644 154.416C33.5644 153.595 33.399 152.875 33.0684 152.256C32.7484 151.637 32.3004 151.163 31.7244 150.832C31.1484 150.501 30.4924 150.336 29.7564 150.336C29.0204 150.336 28.3644 150.501 27.7884 150.832C27.2124 151.163 26.759 151.637 26.4284 152.256C26.1084 152.875 25.9484 153.595 25.9484 154.416C25.9484 155.237 26.1084 155.963 26.4284 156.592C26.759 157.211 27.2124 157.691 27.7884 158.032C28.3644 158.363 29.0204 158.528 29.7564 158.528ZM43.1833 154.288C43.7806 154.395 44.2873 154.709 44.7033 155.232C45.1193 155.755 45.3273 156.347 45.3273 157.008C45.3273 157.573 45.1779 158.085 44.8793 158.544C44.5913 158.992 44.1699 159.349 43.6153 159.616C43.0606 159.872 42.4153 160 41.6793 160H37.2313V148.88H41.4713C42.2286 148.88 42.8793 149.008 43.4233 149.264C43.9673 149.52 44.3779 149.867 44.6553 150.304C44.9326 150.731 45.0712 151.211 45.0712 151.744C45.0712 152.384 44.9006 152.917 44.5593 153.344C44.2179 153.771 43.7593 154.085 43.1833 154.288ZM39.0553 153.552H41.3113C41.9086 153.552 42.3726 153.419 42.7033 153.152C43.0446 152.875 43.2153 152.48 43.2153 151.968C43.2153 151.467 43.0446 151.077 42.7033 150.8C42.3726 150.512 41.9086 150.368 41.3113 150.368H39.0553V153.552ZM41.5193 158.512C42.1379 158.512 42.6233 158.363 42.9753 158.064C43.3273 157.765 43.5033 157.349 43.5033 156.816C43.5033 156.272 43.3166 155.84 42.9433 155.52C42.5699 155.2 42.0739 155.04 41.4553 155.04H39.0553V158.512H41.5193ZM54.0134 157.728H49.3574L48.5574 160H46.6534L50.6374 148.864H52.7494L56.7334 160H54.8134L54.0134 157.728ZM53.5014 156.24L51.6934 151.072L49.8694 156.24H53.5014ZM60.2896 158.528H64.0496V160H58.4656V148.88H60.2896V158.528ZM71.5553 150.352V153.616H75.3953V155.104H71.5553V158.512H75.8753V160H69.7313V148.864H75.8753V150.352H71.5553ZM83.2259 154.448L86.6819 160H84.6339L82.1219 155.968L79.7699 160H77.7379L81.1939 154.448L77.7219 148.88H79.7699L82.2979 152.944L84.6659 148.88H86.6979L83.2259 154.448ZM90.5084 148.88V160H88.6844V148.88H90.5084ZM104.615 148.88V160H102.791V152.384L99.3991 160H98.1351L94.7271 152.384V160H92.9031V148.88H94.8711L98.7751 157.6L102.663 148.88H104.615ZM118.945 152.192C118.945 152.757 118.811 153.291 118.545 153.792C118.278 154.293 117.851 154.704 117.265 155.024C116.678 155.333 115.926 155.488 115.009 155.488H112.993V160H111.169V148.88H115.009C115.862 148.88 116.582 149.029 117.169 149.328C117.766 149.616 118.209 150.011 118.497 150.512C118.795 151.013 118.945 151.573 118.945 152.192ZM115.009 154C115.702 154 116.219 153.845 116.561 153.536C116.902 153.216 117.073 152.768 117.073 152.192C117.073 150.976 116.385 150.368 115.009 150.368H112.993V154H115.009ZM124.092 158.368L126.588 151.184H128.524L125.164 160H122.988L119.644 151.184H121.596L124.092 158.368ZM132.031 152.672V157.552C132.031 157.883 132.106 158.123 132.255 158.272C132.415 158.411 132.682 158.48 133.055 158.48H134.175V160H132.735C131.914 160 131.284 159.808 130.847 159.424C130.41 159.04 130.191 158.416 130.191 157.552V152.672H129.151V151.184H130.191V148.992H132.031V151.184H134.175V152.672H132.031ZM136.592 160.112C136.262 160.112 135.984 160 135.76 159.776C135.536 159.552 135.424 159.275 135.424 158.944C135.424 158.613 135.536 158.336 135.76 158.112C135.984 157.888 136.262 157.776 136.592 157.776C136.912 157.776 137.184 157.888 137.408 158.112C137.632 158.336 137.744 158.613 137.744 158.944C137.744 159.275 137.632 159.552 137.408 159.776C137.184 160 136.912 160.112 136.592 160.112ZM145.696 158.528H149.456V160H143.872V148.88H145.696V158.528ZM153.109 152.672V157.552C153.109 157.883 153.184 158.123 153.333 158.272C153.493 158.411 153.76 158.48 154.133 158.48H155.253V160H153.813C152.992 160 152.363 159.808 151.925 159.424C151.488 159.04 151.269 158.416 151.269 157.552V152.672H150.229V151.184H151.269V148.992H153.109V151.184H155.253V152.672H153.109ZM156.326 155.552C156.326 154.667 156.508 153.883 156.87 153.2C157.244 152.517 157.745 151.989 158.374 151.616C159.014 151.232 159.724 151.04 160.502 151.04C161.078 151.04 161.644 151.168 162.198 151.424C162.764 151.669 163.212 152 163.542 152.416V148.16H165.382V160H163.542V158.672C163.244 159.099 162.828 159.451 162.294 159.728C161.772 160.005 161.169 160.144 160.486 160.144C159.718 160.144 159.014 159.952 158.374 159.568C157.745 159.173 157.244 158.629 156.87 157.936C156.508 157.232 156.326 156.437 156.326 155.552ZM163.542 155.584C163.542 154.976 163.414 154.448 163.158 154C162.913 153.552 162.588 153.211 162.182 152.976C161.777 152.741 161.34 152.624 160.87 152.624C160.401 152.624 159.964 152.741 159.558 152.976C159.153 153.2 158.822 153.536 158.566 153.984C158.321 154.421 158.198 154.944 158.198 155.552C158.198 156.16 158.321 156.693 158.566 157.152C158.822 157.611 159.153 157.963 159.558 158.208C159.974 158.443 160.412 158.56 160.87 158.56C161.34 158.56 161.777 158.443 162.182 158.208C162.588 157.973 162.913 157.632 163.158 157.184C163.414 156.725 163.542 156.192 163.542 155.584Z" fill="#000"/><path d="M2.28906 130C2.09635 130 2 129.904 2 129.711V128.844C2 128.651 2.16862 128.555 2.50586 128.555C3.63802 128.555 4.89062 128.434 6.26367 128.193C10.6719 127.447 12.876 125.929 12.876 123.641V85.5205C12.6351 82.4372 11.2259 80.763 8.64844 80.498C7.8776 80.4017 7.02246 80.3535 6.08301 80.3535H4.02344C3.83073 80.3535 3.73438 80.2572 3.73438 80.0645V79.1611C3.73438 78.9684 3.83073 78.8721 4.02344 78.8721L5.61328 78.8359L11.8281 78.7998L24.6914 78.4023C38.4701 78.4023 45.3594 82.4733 45.3594 90.6152C45.3594 94.0599 43.5768 96.9264 40.0117 99.2148C39.4577 99.5762 38.9759 99.8411 38.5664 100.01C38.181 100.178 37.9642 100.275 37.916 100.299C41.0957 102.081 43.5889 104.081 45.3955 106.297C47.2262 108.513 48.1416 111.163 48.1416 114.246C48.1416 120.822 45.0342 125.399 38.8193 127.977C35.6156 129.326 32.1348 130 28.377 130H2.28906ZM20.5723 101.816C20.2591 101.816 20.1025 101.949 20.1025 102.214V122.015C20.1025 123.725 20.8975 125.098 22.4873 126.134C24.1012 127.17 25.8356 127.688 27.6904 127.688C31.2555 127.688 34.2907 126.423 36.7959 123.894C39.3011 121.34 40.5537 118.209 40.5537 114.499C40.5537 110.765 39.2048 107.718 36.5068 105.357C33.833 102.997 30.4365 101.816 26.3174 101.816H20.5723ZM20.0303 98.8896C20.0303 99.3473 20.3073 99.5762 20.8613 99.5762H29.75C32.0625 99.5762 34.0016 98.721 35.5674 97.0107C37.1572 95.3005 37.9521 93.3854 37.9521 91.2656C37.9521 87.4837 36.8802 84.7497 34.7363 83.0635C32.5924 81.3532 29.738 80.498 26.1729 80.498C25.0889 80.5703 24.3301 80.6064 23.8965 80.6064C23.487 80.6064 23.0534 80.6064 22.5957 80.6064C22.138 80.5824 21.6803 80.6064 21.2227 80.6787C20.765 80.751 20.4518 80.9076 20.2832 81.1484C20.1146 81.3893 20.0303 81.7868 20.0303 82.3408V98.8896Z" fill="#000"/><path d="M65.2382 129.711C65.2382 129.904 65.1419 130 64.9491 130H46.4853C46.2926 130 46.1962 129.904 46.1962 129.711V128.844C46.1962 128.651 46.3528 128.555 46.6659 128.555C49.9661 128.41 52.1943 126.652 53.3505 123.279L68.0927 80.6064C68.1168 80.5583 68.1288 80.498 68.1288 80.4258L67.7314 79.2334C67.7314 79.113 67.7795 79.0527 67.8759 79.0527H75.1025C75.1506 79.0768 75.2109 79.1009 75.2831 79.125C75.3795 79.1491 75.4517 79.2214 75.4999 79.3418L90.7841 122.231C91.1213 122.882 91.3863 123.472 91.579 124.002C91.7958 124.532 92.0367 125.014 92.3017 125.447C92.8798 126.435 93.8313 127.194 95.1562 127.724C96.2642 128.278 97.276 128.555 98.1913 128.555C98.384 128.555 98.4804 128.663 98.4804 128.88V129.711C98.4804 129.904 98.384 130 98.1913 130H76.078C75.8853 130 75.789 129.904 75.789 129.711V128.844C75.789 128.651 76.2346 128.531 77.1259 128.482C78.0172 128.434 78.7519 128.386 79.33 128.338C82.6783 127.977 84.3525 126.844 84.3525 124.941C84.3525 124.797 84.3284 124.628 84.2802 124.436L78.8241 109.043C78.8001 108.995 78.7519 108.886 78.6796 108.718C78.3905 107.899 77.8847 107.489 77.162 107.489H64.3349C63.6122 107.489 63.0461 107.887 62.6366 108.682C62.5644 108.85 62.5282 108.947 62.5282 108.971L57.1083 124.833V125.158C57.1083 125.785 57.4335 126.351 58.0839 126.856C59.5533 127.989 61.5286 128.555 64.0097 128.555H64.9491C65.1419 128.555 65.2382 128.651 65.2382 128.844V129.711ZM75.9335 103.479C76.3671 103.479 76.5839 103.298 76.5839 102.937C76.5839 102.744 76.5357 102.527 76.4394 102.286L71.0556 87.4717C70.8147 86.8213 70.634 86.4961 70.5136 86.4961C70.3932 86.4961 70.2004 86.8333 69.9355 87.5078L64.8769 102.286C64.7805 102.527 64.7323 102.792 64.7323 103.081C64.7323 103.346 64.913 103.479 65.2743 103.479H75.9335Z" fill="#000"/><path d="M104.783 130C103.964 130 103.555 129.759 103.555 129.277V128.916C103.555 128.531 103.904 128.302 104.602 128.229C105.325 128.133 105.795 128.073 106.012 128.049C107.842 127.856 109.131 127.41 109.878 126.712C110.625 125.989 110.998 124.917 110.998 123.496V111.536C110.998 111.368 110.962 111.187 110.889 110.994L96.1112 87.4355C93.7987 83.75 91.5103 81.6302 89.2459 81.0762C89.1255 81.0521 88.9087 81.0039 88.5956 80.9316C88.2824 80.8594 87.5838 80.7389 86.4998 80.5703C86.1144 80.498 85.9217 80.2331 85.9217 79.7754C85.9217 79.2936 86.1024 79.0527 86.4637 79.0527H107.132C107.541 79.0527 107.746 79.2936 107.746 79.7754C107.746 80.2572 107.541 80.498 107.132 80.498C105.518 80.6667 104.446 80.8353 103.916 81.0039C102.711 81.4375 102.109 82.2083 102.109 83.3164C102.109 83.8945 102.254 84.4124 102.543 84.8701L114.756 104.382C115.021 104.767 115.177 105.02 115.225 105.141C115.298 105.237 115.43 105.285 115.623 105.285C115.84 105.285 116.165 104.936 116.598 104.237L126.354 87.6523C126.643 87.0742 126.969 86.46 127.33 85.8096C127.715 85.1351 127.908 84.4486 127.908 83.75C127.908 81.9915 126.704 80.9557 124.295 80.6426C123.428 80.5221 122.958 80.3896 122.886 80.2451C122.813 80.1006 122.777 79.9199 122.777 79.7031C122.777 79.2695 122.982 79.0527 123.391 79.0527H140.265C140.603 79.0527 140.771 79.2214 140.771 79.5586C140.771 79.8958 140.711 80.1247 140.591 80.2451C140.494 80.3656 140.35 80.4619 140.157 80.5342C139.988 80.5824 139.796 80.6305 139.579 80.6787C139.362 80.7028 138.892 80.7992 138.17 80.9678C136.484 81.3773 134.653 82.7142 132.678 84.9785C132.461 85.2435 132.34 85.4001 132.316 85.4482L118.044 110.019V123.496C118.044 124.797 118.405 125.821 119.128 126.567C119.875 127.314 121.115 127.808 122.849 128.049C124.608 128.266 125.487 128.543 125.487 128.88V129.277C125.487 129.759 125.078 130 124.259 130H104.783Z" fill="#000"/><path d="M165.564 79.4863C165.805 79.4863 165.926 79.7513 165.926 80.2812L166.865 87.9775C166.961 88.4593 167.01 88.7725 167.01 88.917C167.01 89.0374 166.817 89.0977 166.431 89.0977C166.07 89.0977 165.841 89.0495 165.745 88.9531C165.649 88.8568 165.552 88.7002 165.456 88.4834C165.359 88.2425 165.239 87.9775 165.094 87.6885C164.974 87.3994 164.842 87.1104 164.697 86.8213C164.191 85.7132 163.396 84.6172 162.312 83.5332C159.663 80.9798 156.676 79.7031 153.351 79.7031C151.352 79.7031 149.461 80.3535 147.678 81.6543C145.896 82.9551 145.005 84.4967 145.005 86.2793C145.005 88.0378 145.33 89.5674 145.98 90.8682C146.655 92.1689 147.534 93.3734 148.618 94.4814C149.702 95.5895 150.942 96.6494 152.34 97.6611C153.737 98.6729 155.158 99.6966 156.603 100.732C160.433 103.406 163.155 105.695 164.769 107.598C167.299 110.536 168.672 113.837 168.888 117.498C168.888 121.593 167.311 124.869 164.155 127.326C161.024 129.759 157.374 130.976 153.207 130.976C150.533 130.976 148.401 130.699 146.811 130.145C145.246 129.615 144.162 129.229 143.559 128.988C142.957 128.747 142.511 128.627 142.222 128.627C141.957 128.627 141.789 128.639 141.717 128.663L139.946 129.024C139.633 129.024 139.44 128.771 139.368 128.266C138.669 122.292 138.32 119.124 138.32 118.763C138.32 118.377 138.344 118.124 138.392 118.004C138.465 117.859 138.633 117.787 138.898 117.787C139.573 117.787 140.187 118.751 140.741 120.678C143.27 126.098 147.474 128.808 153.351 128.808C156.049 128.808 158.35 127.989 160.253 126.351C162.18 124.713 163.143 122.581 163.143 119.955C163.143 115.764 160.638 111.861 155.628 108.248C154.206 107.236 152.159 105.827 149.485 104.021C146.811 102.214 144.679 100.407 143.09 98.6006C140.608 95.8063 139.368 92.6989 139.368 89.2783C139.368 85.8337 140.729 83.0153 143.451 80.8232C146.197 78.6312 149.341 77.5352 152.882 77.5352C154.712 77.5352 156.724 77.8483 158.916 78.4746C161.132 79.1009 162.674 79.5225 163.541 79.7393L165.564 79.4863Z" fill="#000"/></svg>